<svg id="visual" viewBox="0 0 900 600" width="900" height="600" xmlns="http://www.w3.org/2000/svg" xmlns:xlink="http://www.w3.org/1999/xlink" version="1.1"><g stroke-width="1" stroke-linejoin="bevel"><path d="M377 266L433 215L314 207Z" fill="#011324" stroke="#011324"></path><path d="M433 215L412 126L314 207Z" fill="#0b1a3d" stroke="#0b1a3d"></path><path d="M412 126L297 134L314 207Z" fill="#011527" stroke="#011527"></path><path d="M199 208L288 278L314 207Z" fill="#011324" stroke="#011324"></path><path d="M314 207L288 278L377 266Z" fill="#0f1b40" stroke="#0f1b40"></path><path d="M433 215L471 98L412 126Z" fill="#011527" stroke="#011527"></path><path d="M412 126L366 0L297 134Z" fill="#071a39" stroke="#071a39"></path><path d="M527 272L537 217L433 215Z" fill="#02172f" stroke="#02172f"></path><path d="M433 215L537 217L471 98Z" fill="#041936" stroke="#041936"></path><path d="M430 382L527 272L377 266Z" fill="#02162b" stroke="#02162b"></path><path d="M377 266L527 272L433 215Z" fill="#0b1a3d" stroke="#0b1a3d"></path><path d="M297 134L199 208L314 207Z" fill="#041936" stroke="#041936"></path><path d="M199 208L206 275L288 278Z" fill="#001220" stroke="#001220"></path><path d="M304 436L430 382L288 278Z" fill="#00101c" stroke="#00101c"></path><path d="M288 278L430 382L377 266Z" fill="#00101c" stroke="#00101c"></path><path d="M471 98L366 0L412 126Z" fill="#011324" stroke="#011324"></path><path d="M297 134L163 97L199 208Z" fill="#041936" stroke="#041936"></path><path d="M588 275L591 201L537 217Z" fill="#02172f" stroke="#02172f"></path><path d="M537 217L591 201L471 98Z" fill="#011324" stroke="#011324"></path><path d="M471 98L473 0L366 0Z" fill="#02162b" stroke="#02162b"></path><path d="M588 275L537 217L527 272Z" fill="#001220" stroke="#001220"></path><path d="M510 403L588 275L527 272Z" fill="#0b1a3d" stroke="#0b1a3d"></path><path d="M366 0L281 0L297 134Z" fill="#00101c" stroke="#00101c"></path><path d="M584 0L473 0L471 98Z" fill="#011527" stroke="#011527"></path><path d="M281 0L163 97L297 134Z" fill="#071a39" stroke="#071a39"></path><path d="M199 208L95 290L206 275Z" fill="#031833" stroke="#031833"></path><path d="M430 382L510 403L527 272Z" fill="#02172f" stroke="#02172f"></path><path d="M219 436L304 436L288 278Z" fill="#001220" stroke="#001220"></path><path d="M430 382L460 478L510 403Z" fill="#031833" stroke="#031833"></path><path d="M163 97L126 183L199 208Z" fill="#031833" stroke="#031833"></path><path d="M206 275L219 436L288 278Z" fill="#00101c" stroke="#00101c"></path><path d="M691 182L630 114L591 201Z" fill="#02162b" stroke="#02162b"></path><path d="M591 201L630 114L471 98Z" fill="#02162b" stroke="#02162b"></path><path d="M95 290L219 436L206 275Z" fill="#001220" stroke="#001220"></path><path d="M281 0L188 0L163 97Z" fill="#071a39" stroke="#071a39"></path><path d="M163 97L115 104L126 183Z" fill="#02172f" stroke="#02172f"></path><path d="M188 0L115 104L163 97Z" fill="#011324" stroke="#011324"></path><path d="M411 498L430 382L304 436Z" fill="#001220" stroke="#001220"></path><path d="M411 498L460 478L430 382Z" fill="#071a39" stroke="#071a39"></path><path d="M0 204L95 290L126 183Z" fill="#0b1a3d" stroke="#0b1a3d"></path><path d="M126 183L95 290L199 208Z" fill="#071a39" stroke="#071a39"></path><path d="M219 436L296 487L304 436Z" fill="#00101c" stroke="#00101c"></path><path d="M296 487L411 498L304 436Z" fill="#02172f" stroke="#02172f"></path><path d="M630 114L584 0L471 98Z" fill="#071a39" stroke="#071a39"></path><path d="M690 304L691 182L588 275Z" fill="#031833" stroke="#031833"></path><path d="M588 275L691 182L591 201Z" fill="#0b1a3d" stroke="#0b1a3d"></path><path d="M630 114L714 0L584 0Z" fill="#011527" stroke="#011527"></path><path d="M690 304L588 275L639 423Z" fill="#011324" stroke="#011324"></path><path d="M219 436L190 481L296 487Z" fill="#0f1b40" stroke="#0f1b40"></path><path d="M296 487L360 600L411 498Z" fill="#041936" stroke="#041936"></path><path d="M74 408L190 481L219 436Z" fill="#02162b" stroke="#02162b"></path><path d="M639 423L588 275L510 403Z" fill="#02162b" stroke="#02162b"></path><path d="M766 98L701 123L781 193Z" fill="#041936" stroke="#041936"></path><path d="M691 182L701 123L630 114Z" fill="#02172f" stroke="#02172f"></path><path d="M637 488L639 423L510 403Z" fill="#071a39" stroke="#071a39"></path><path d="M637 488L510 403L460 478Z" fill="#001220" stroke="#001220"></path><path d="M0 375L74 408L95 290Z" fill="#001220" stroke="#001220"></path><path d="M95 290L74 408L219 436Z" fill="#071a39" stroke="#071a39"></path><path d="M188 0L64 0L115 104Z" fill="#011324" stroke="#011324"></path><path d="M115 104L0 204L126 183Z" fill="#02162b" stroke="#02162b"></path><path d="M0 83L0 204L115 104Z" fill="#02172f" stroke="#02172f"></path><path d="M0 204L0 291L95 290Z" fill="#011527" stroke="#011527"></path><path d="M596 600L637 488L460 478Z" fill="#0b1a3d" stroke="#0b1a3d"></path><path d="M639 423L723 392L690 304Z" fill="#02162b" stroke="#02162b"></path><path d="M74 408L100 483L190 481Z" fill="#001220" stroke="#001220"></path><path d="M274 600L360 600L296 487Z" fill="#0f1b40" stroke="#0f1b40"></path><path d="M0 531L100 483L74 408Z" fill="#0f1b40" stroke="#0f1b40"></path><path d="M64 0L0 83L115 104Z" fill="#041936" stroke="#041936"></path><path d="M274 600L296 487L235 600Z" fill="#011324" stroke="#011324"></path><path d="M411 498L464 600L460 478Z" fill="#001220" stroke="#001220"></path><path d="M707 481L723 392L639 423Z" fill="#011324" stroke="#011324"></path><path d="M781 193L701 123L691 182Z" fill="#001220" stroke="#001220"></path><path d="M766 98L714 0L701 123Z" fill="#02162b" stroke="#02162b"></path><path d="M701 123L714 0L630 114Z" fill="#0f1b40" stroke="#0f1b40"></path><path d="M360 600L464 600L411 498Z" fill="#071a39" stroke="#071a39"></path><path d="M235 600L296 487L190 481Z" fill="#02162b" stroke="#02162b"></path><path d="M781 193L691 182L690 304Z" fill="#00101c" stroke="#00101c"></path><path d="M823 316L781 193L690 304Z" fill="#00101c" stroke="#00101c"></path><path d="M0 291L0 375L95 290Z" fill="#031833" stroke="#031833"></path><path d="M137 600L235 600L190 481Z" fill="#031833" stroke="#031833"></path><path d="M64 0L0 0L0 83Z" fill="#0b1a3d" stroke="#0b1a3d"></path><path d="M637 488L707 481L639 423Z" fill="#00101c" stroke="#00101c"></path><path d="M723 392L823 316L690 304Z" fill="#071a39" stroke="#071a39"></path><path d="M675 600L707 481L637 488Z" fill="#031833" stroke="#031833"></path><path d="M464 600L596 600L460 478Z" fill="#00101c" stroke="#00101c"></path><path d="M0 531L137 600L100 483Z" fill="#0f1b40" stroke="#0f1b40"></path><path d="M100 483L137 600L190 481Z" fill="#041936" stroke="#041936"></path><path d="M836 368L823 316L723 392Z" fill="#001220" stroke="#001220"></path><path d="M900 73L829 0L766 98Z" fill="#0f1b40" stroke="#0f1b40"></path><path d="M675 600L763 485L707 481Z" fill="#00101c" stroke="#00101c"></path><path d="M707 481L763 485L723 392Z" fill="#011527" stroke="#011527"></path><path d="M763 485L836 368L723 392Z" fill="#011324" stroke="#011324"></path><path d="M0 375L0 531L74 408Z" fill="#02162b" stroke="#02162b"></path><path d="M596 600L675 600L637 488Z" fill="#011324" stroke="#011324"></path><path d="M766 98L829 0L714 0Z" fill="#0f1b40" stroke="#0f1b40"></path><path d="M900 172L766 98L781 193Z" fill="#001220" stroke="#001220"></path><path d="M900 172L781 193L900 271Z" fill="#02162b" stroke="#02162b"></path><path d="M900 271L781 193L823 316Z" fill="#001220" stroke="#001220"></path><path d="M836 368L900 271L823 316Z" fill="#0b1a3d" stroke="#0b1a3d"></path><path d="M900 418L900 271L836 368Z" fill="#011324" stroke="#011324"></path><path d="M900 172L900 73L766 98Z" fill="#0b1a3d" stroke="#0b1a3d"></path><path d="M0 531L0 600L137 600Z" fill="#011324" stroke="#011324"></path><path d="M900 73L900 0L829 0Z" fill="#011527" stroke="#011527"></path><path d="M900 497L900 418L763 485Z" fill="#00101c" stroke="#00101c"></path><path d="M763 485L900 418L836 368Z" fill="#011527" stroke="#011527"></path><path d="M831 600L900 497L763 485Z" fill="#02162b" stroke="#02162b"></path><path d="M675 600L831 600L763 485Z" fill="#001220" stroke="#001220"></path><path d="M831 600L900 600L900 497Z" fill="#071a39" stroke="#071a39"></path></g></svg>